<svg width="461" height="4441" viewBox="0 0 461 4441" fill="none" xmlns="http://www.w3.org/2000/svg">
<path d="M225.501 0V470L292.501 561.5L258.501 563.5L309.001 642.5H141.001L191.501 563.5L155.001 561.5L225.501 472.5V697C225.501 697 183.001 806 225.501 868C268.001 930 102.501 987 102.501 987C15.9893 1004.41 -30.9992 1063 27.0008 1147C85.0008 1231 240.001 1307 240.001 1307L382.001 1413L349.001 1617C349.001 1617 162.001 1833 216.001 1893C270.001 1953 216.001 1981 159.001 1931C102.001 1881 200.001 1847 75.0008 1847C-49.9992 1847 37.0008 1786 37.0008 1786C37.0008 1786 66.0008 1544 216.001 1544C366.001 1544 460.001 1644 450.001 1710C440.001 1776 355.001 1947 321.001 1992C287.001 2037 302.443 2177.19 270.001 2201C237.559 2224.81 84.0865 2203.91 93.0008 2308C93.0008 2308 57.0008 2568 93.0008 2598C129.001 2628 432.001 2536 442.001 2611C452.001 2686 413.001 2825 398.001 2834C383.001 2843 282.001 3065 257.001 3087C232.001 3109 75.0008 3341 110.001 3380C145.001 3419 385.001 3414 449.001 3536C513.001 3658 268.001 3786 304.001 3892C340.001 3998 218.001 4292 261.001 4364C304.001 4436 342.001 4450 374.001 4426C406.001 4402 428.001 4337 383.001 4319C338.001 4301 347.001 4234 304.001 4185C261.001 4136 223.001 4051 163.001 4129C103.001 4207 140.001 4334 140.001 4334C148.334 4350.67 168.801 4388.2 184.001 4405C203.001 4426 237.001 4456 249.001 4459C258.601 4461.4 360.334 4469.33 410.001 4473" stroke="black"/>
</svg>
